<?xml version="1.0" encoding="utf-8"?>
<!-- Generator: Adobe Illustrator 24.0.0, SVG Export Plug-In . SVG Version: 6.00 Build 0)  -->
<svg version="1.1" id="Layer_1" xmlns="http://www.w3.org/2000/svg" xmlns:xlink="http://www.w3.org/1999/xlink" x="0px" y="0px"
	 viewBox="0 0 2000 2000" style="enable-background:new 0 0 2000 2000;" xml:space="preserve">
<style type="text/css">
	.st0{display:none;}
	.st1{display:inline;}
	.st2{display:inline;fill:#FFFFFF;}
	.st3{clip-path:url(#SVGID_2_);}
	.st4{clip-path:url(#SVGID_4_);}
	.st5{clip-path:url(#SVGID_6_);fill:#FFFFFF;}
	.st6{clip-path:url(#SVGID_8_);fill:#05171D;}
	.st7{clip-path:url(#SVGID_8_);fill:#FFFFFF;}
</style>
<g class="st0">
	<rect x="-2.5" y="-2.5" class="st1" width="2000" height="2005"/>
	<path class="st2" d="M1997-2v2004H-2V-2H1997 M1998-3H-3v2006h2001V-3L1998-3z"/>
</g>
<g>
	<defs>
		<rect id="SVGID_1_" x="143.5" y="183" width="1713" height="1634"/>
	</defs>
	<clipPath id="SVGID_2_">
		<use xlink:href="#SVGID_1_"  style="overflow:visible;"/>
	</clipPath>
	<g id="Artwork_10_1_" class="st3">
		<g>
			<defs>
				<rect id="SVGID_3_" x="-101.7" y="429.8" width="2256" height="2714.3"/>
			</defs>
			<clipPath id="SVGID_4_">
				<use xlink:href="#SVGID_3_"  style="overflow:visible;"/>
			</clipPath>
			<g class="st4">
				<defs>
					<rect id="SVGID_5_" x="-101.7" y="429.8" width="2256" height="2714.3"/>
				</defs>
				<clipPath id="SVGID_6_">
					<use xlink:href="#SVGID_5_"  style="overflow:visible;"/>
				</clipPath>
				<path class="st5" d="M560.2,2466.7c-67.5,67.8-149.7,101.7-246.7,101.7c-97,0-179.2-33.9-246.7-101.7
					C-0.6,2399-34.3,2316.9-34.3,2220.5s33.7-178.4,101.2-246.2c67.4-67.8,149.7-101.7,246.7-101.7c97,0,179.2,33.9,246.7,101.7
					c67.4,67.8,101.2,149.8,101.2,246.2S627.6,2399,560.2,2466.7 M103,2432c57.5,58.2,127.7,87.2,210.5,87.2
					c82.9,0,153-29.1,210.5-87.2c57.5-58.1,86.2-128.6,86.2-211.5c0-82.9-28.8-153.4-86.2-211.5c-57.5-58.1-127.7-87.2-210.5-87.2
					c-82.9,0-153.1,29.1-210.5,87.2c-57.5,58.1-86.2,128.6-86.2,211.5C16.7,2303.4,45.5,2373.9,103,2432"/>
				<path class="st5" d="M1102.7,2568.4c-101.5,0-185.3-33.6-251.5-100.7c-66.2-67.1-99.3-149.5-99.3-247.2
					c0-97.6,33.1-180,99.3-247.2c66.2-67.1,150-100.7,251.5-100.7c61.7,0,118.2,14.6,169.6,43.8c51.4,29.2,91.2,68.6,119.5,118
					l-45.3,26c-22.5-41.8-55.6-75.3-99.2-100.7c-43.7-25.4-91.9-38.1-144.5-38.1c-87.4,0-159.2,28.8-215.4,86.2
					c-56.2,57.5-84.3,128.3-84.3,212.5c0,84.2,28.1,155,84.3,212.5c56.2,57.5,128,86.2,215.4,86.2c52.7,0,101.2-12.8,145.5-38.5
					c44.3-25.7,77.7-60.1,100.2-103.1l45.3,26c-27.6,50.1-67.4,90.1-119.5,120C1222.2,2553.4,1165,2568.4,1102.7,2568.4"/>
				<path class="st5" d="M1767.5,1883.3c91.9,0,167.8,32.6,227.9,97.8c60.1,65.2,90.1,145,90.1,239.4c0,94.4-30,174.3-90.1,239.5
					c-60.1,65.2-136,97.8-227.9,97.8h-253.4v-674.5H1767.5z M1767.5,2509.6c78.4,0,142.6-27.8,192.7-83.3
					c50.1-55.6,75.2-124.1,75.2-205.7c0-81.6-25-150.1-75.2-205.7c-50.1-55.6-114.4-83.4-192.7-83.4h-202.4v578.1H1767.5z"/>
			</g>
			<g class="st4">
				<defs>
					<rect id="SVGID_7_" x="-101.7" y="429.8" width="2256" height="2714.3"/>
				</defs>
				<clipPath id="SVGID_8_">
					<use xlink:href="#SVGID_7_"  style="overflow:visible;"/>
				</clipPath>
				<path class="st6" d="M958.7,579.3c-278.7,0-504.5,225.9-504.5,504.5c0,278.7,225.9,504.5,504.5,504.5s504.5-225.9,504.5-504.5
					C1463.3,805.2,1237.4,579.3,958.7,579.3 M958.7,1438.9c-196.1,0-355-159-355-355c0-196.1,159-355.1,355-355.1s355,159,355,355.1
					C1313.8,1280,1154.8,1438.9,958.7,1438.9"/>
				<path class="st7" d="M958.7,1294.1c-116.1,0-210.2-94.1-210.2-210.2c0-116.1,94.1-210.2,210.2-210.2V728.8
					c-196.1,0-355,159-355,355.1s159,355.1,355,355.1V1294.1z"/>
				<path class="st7" d="M958.7,429.8v149.5c278.7,0,504.5,225.9,504.5,504.5c0,278.7-225.9,504.5-504.5,504.5v149.5
					c361.2,0,654-292.8,654-654S1319.9,429.8,958.7,429.8"/>
			</g>
		</g>
	</g>
</g>
</svg>
