<svg xmlns="http://www.w3.org/2000/svg" viewBox="0 0 107.77 121.68"><defs><style>.cls-1{fill:#05171d;}.cls-2{fill:#fff;}</style></defs><title>OCD LogoAsset 1</title><g id="Layer_2" data-name="Layer 2"><g id="Layer_1-2" data-name="Layer 1"><path class="cls-1" d="M46.93,13.91A46.93,46.93,0,1,0,93.87,60.84,46.93,46.93,0,0,0,46.93,13.91Zm0,80a33,33,0,1,1,33-33A33,33,0,0,1,46.93,93.87Z"/><path class="cls-2" d="M46.93,80.4a19.56,19.56,0,0,1,0-39.12V27.81a33,33,0,0,0,0,66.06Z"/><path class="cls-2" d="M46.93,0V13.91a46.93,46.93,0,1,1,0,93.86v13.91A60.84,60.84,0,0,0,46.93,0Z"/></g></g></svg>